<svg width="128" height="128" viewBox="0 0 128 128" fill="none" xmlns="http://www.w3.org/2000/svg">
  <g transform="translate(64 64) scale(1.1) translate(-64 -64)">
    <rect x="18" y="22" width="64" height="84" rx="12" fill="#3A4454" stroke="#111827" stroke-width="3"/>
    <path d="M30 42h40" stroke="#38BDF8" stroke-width="4" stroke-linecap="round"/>
    <path d="M30 60h40" stroke="#A5B4FC" stroke-width="4" stroke-linecap="round"/>
    <path d="M30 78h22" stroke="#FACC15" stroke-width="4" stroke-linecap="round"/>
    <circle cx="94" cy="44" r="18" fill="#0F172A" stroke="#38BDF8" stroke-width="4"/>
    <path d="M94 28l2.5 6.5 6.7-.5-1.7 6.7 5.7 3.7-5.7 3.7 1.7 6.7-6.7-.5-2.5 6.5-2.5-6.5-6.7.5 1.7-6.7-5.7-3.7 5.7-3.7-1.7-6.7 6.7.5 2.5-6.5z" fill="#38BDF8"/>
    <circle cx="94" cy="44" r="6" fill="#0B1020"/>
    <circle cx="94" cy="84" r="14" fill="#0F172A" stroke="#FACC15" stroke-width="3"/>
    <path d="M94 70l2 5 5.5-.3-1.2 5.4 4.6 2.8-4.6 2.8 1.2 5.4-5.5-.3-2 5-2-5-5.5.3 1.2-5.4-4.6-2.8 4.6-2.8-1.2-5.4 5.5.3 2-5z" fill="#FACC15"/>
    <circle cx="94" cy="84" r="4.5" fill="#0B1020"/>
  </g>
</svg>
